/* XPM */
static char *kdiamond[] = {
/* columns rows colors chars-per-pixel */
"32 32 128 2 ",
"   c #7AB4BC",
".  c #74BCD4",
"X  c #7BBDD3",
"o  c #7DC1DA",
"O  c #77C3E1",
"+  c #92BEB8",
"@  c #A7B0B9",
"#  c #BCBDBE",
"$  c #C7D5A9",
"%  c #D1D7B3",
"&  c #D4DEBA",
"*  c #83BCC4",
"=  c #80BACE",
"-  c #80BBD2",
";  c #93BDD1",
":  c #A2B8CE",
">  c #B7BFC4",
",  c #A3B9D0",
"<  c #8EC4CC",
"1  c #90C8CF",
"2  c #9AC9CF",
"3  c #82C3D5",
"4  c #8AC4D5",
"5  c #8DC5DA",
"6  c #90C7D6",
"7  c #93C7D9",
"8  c #95CDDA",
"9  c #9CCBDB",
"0  c #9AD1DD",
"q  c #AACFC3",
"w  c #B3C3CF",
"e  c #BAC4CE",
"r  c #B5C9CF",
"t  c #BCCBCA",
"y  c #A8C0D3",
"u  c #AECAD7",
"i  c #AEC3D8",
"p  c #A2CCDD",
"a  c #B6CBDB",
"s  c #B9CCDD",
"d  c #A1D1DE",
"f  c #B4D7D0",
"g  c #BAD2D4",
"h  c #B3D3D9",
"j  c #93CCE3",
"k  c #9CD3E6",
"l  c #93D1E9",
"z  c #A4D4E4",
"x  c #ADD6E3",
"c  c #ABDCE2",
"v  c #B5D1E1",
"b  c #B4DCE7",
"n  c #BADCE4",
"m  c #B4DCEA",
"M  c #BDDEEE",
"N  c #ABD8FF",
"B  c #BDDFF1",
"V  c #B7E2E9",
"C  c #BBE4EB",
"Z  c #BCE1F0",
"A  c #B0E0FF",
"S  c #B9E5FF",
"D  c #BBEAFF",
"F  c #C0C7C9",
"G  c #C5D3C0",
"H  c #D3DEC1",
"J  c #C3CBD3",
"K  c #C9CCD0",
"L  c #CFD3D7",
"P  c #C1D3DE",
"I  c #CAD4DC",
"U  c #C5D8DC",
"Y  c #D2D3D4",
"T  c #D7D8D8",
"R  c #DBDCDC",
"E  c #D3E1D8",
"W  c #EFEECF",
"Q  c #F0EECA",
"!  c #F5F3D2",
"~  c #C3D4E4",
"^  c #CAD5E5",
"/  c #C3DEE1",
"(  c #C8DFE1",
")  c #CBDBE8",
"_  c #DDDEE0",
"`  c #D0DEEE",
"'  c #C7E2E6",
"]  c #C7E3ED",
"[  c #C8E8EE",
"{  c #D1E1E2",
"}  c #D3E4EB",
"|  c #D9E7E9",
" . c #D4E9EF",
".. c #D9E9EC",
"X. c #C4E5F1",
"o. c #CBE3F3",
"O. c #C6EAF4",
"+. c #CFEAF5",
"@. c #C4EBFD",
"#. c #CAEDFE",
"$. c #D4E3F2",
"%. c #D9E6F3",
"&. c #D4EDF3",
"*. c #DBEEF6",
"=. c #D6E7FA",
"-. c #D5EBFC",
";. c #DCEDFD",
":. c #C3F1FF",
">. c #CDF2FF",
",. c #D6F2FF",
"<. c #DCF2FF",
"1. c #E4E5E5",
"2. c #E0E7EE",
"3. c #E3EEEF",
"4. c #EBECEC",
"5. c #F8F6E4",
"6. c #E4EDF3",
"7. c #E6F2F5",
"8. c #EDF2F4",
"9. c #E3F4FF",
"0. c #EBF6FE",
"q. c #E5F8FF",
"w. c #EBF9FF",
"e. c #F2F3F3",
"r. c #F1F7F9",
"t. c #F3FCFE",
"y. c #FBFDFE",
"u. c None",
/* pixels */
"u.u.u.u.u.u.u.u.u.u.u.u.u.u.u.u.u.u.u.u.u.u.u.u.u.u.u.u.u.u.u.u.",
"u.u.u.u.u.u.u.u.u.u.u.u.u.u.u.u.u.u.u.u.u.u.u.u.u.u.u.u.u.u.u.u.",
"u.u.u.u.u.u.u.u.u.u.u.u.u.u.u.4.4.u.u.u.u.u.u.u.u.u.u.u.u.u.u.u.",
"u.u.u.u.u.u.u.u.u.y.t.y.r.r.t.t.t.w.r.7.6.2.u.u.u.u.u.u.u.u.u.u.",
"u.u.u.u.u.u.u.u.7.y.y.y.t.t.t.t.t.w.q.9.q.,.+.u.u.u.u.u.u.u.u.u.",
"u.u.u.u.u.u.2.9.t.y.t.t.y.t.t.t.t.q.q.q.q.>.#.@.o.u.u.u.u.u.u.u.",
"u.u.u.u.u.6.9.y.9.9.w.w.t.y.t.t.q.<.q.9.9.,.:.D A u.u.u.u.u.u.u.",
"u.u.u.u.6.9.9.9.9.w.t.y.t.t.t.q.t.t.t.9.#.#.@.S N u.u.u.u.u.u.u.",
"u.u.u.u.w.9.9.0.t.w.t.t.t.&.V C O.<.,.-.@.u.u.u.u.u.u.u.u.u.u.u.",
"u.u.u.t.w.9.9.w.t.y.t.C c c c c c :.:.1 < y.y.w.u.u.u.u.u.u.u.u.",
"u.u.e.y.t.w.w.w.y.y.7.C V n c d d z k *   Z y.y.<.u.u.u.u.u.u.u.",
"u.u.8.t.w.9.9.9.y.y.w.C c d 9 8 4 4 u.u.u.u.9.y.<.>.>.u.u.u.u.u.",
"u.u.r.y.w.9.<.9.q.9.O.b 0 9 6 3 - X u.u.u.u.u.0.u.u.u.u.u.u.u.u.",
"u.u.r.0.9.9.<.,.<.>.b z d 6 < 3 o . u.u.u.u.<.t.u.u.u.u.u.u.u.u.",
"u.u.r.0.9.9.;.-.<.-.x 0 0 6 4 o 3 o o O u.u.t.y.u.u.u.u.u.u.u.u.",
"u.u.6.9.9.9.-.=.;.9.M 0 8 4 3 4 5 5 j j l D t.q.u.u.u.u.u.u.u.u.",
"u.u.%.+.C -.X.X.;.-.u.b f q 2 ; 7 p x m Z D u.u.u.u.u.u.u.u.u.u.",
"u.u.u.+.b B =.[ %.` ~ E ! Q H 9 9 B ;.9.&.[ V u.u.u.u.u.u.u.u.u.",
"u.u.u.%.-.$.$.) ~ s a G W 5.& 9 z B +.*.*. .' h u.u.u.u.u.u.u.u.",
"u.u.u.u.$.$.^ P a i y t % $ + = p n ]  .7.3.| / h u.u.u.u.u.u.u.",
"u.u.u.u.u.s v , , i : u.w P u.X p n } | 3.8.7...( g u.# u.u.u.u.",
"u.u.u.u.u.@ u.u.u.u.u.u.u.I I r I { | *.7.r.e.e.3._ Y u.u.u.u.u.",
"u.u.u.u.u.u.u.u ; u.u.w I _ 1.1.1.1.1.4.e.y.y.e.4.1.T u.u.u.u.u.",
"u.u.u.u.u.u.u.u.> e u.J L R 1.4.1.1.1.4.e.y.e.4.e.4.1.u.u.u.u.u.",
"u.u.u.u.u.u.u.u.u.u.F K T T R 1._ 1.1.1.1.4.4.e.e.e.e.u.u.u.u.u.",
"u.u.u.u.u.u.u.u.u.u.u.u.u.u.u.T R R 1.1.e.e.y.y.y.u.u.u.u.u.u.u.",
"u.u.u.u.u.u.u.u.u.u.u.u.u.u.u.u.u.u.u.u.u.u.u.u.u.u.u.u.u.u.u.u.",
"u.u.u.u.u.u.u.u.u.u.u.u.u.u.u.u.u.u.u.u.u.u.u.u.u.u.u.u.u.u.u.u.",
"u.u.u.u.u.u.u.u.u.u.u.u.u.u.u.u.u.u.u.u.u.u.u.u.u.u.u.u.u.u.u.u.",
"u.u.u.u.u.u.u.u.u.u.u.u.u.u.u.u.u.u.u.u.u.u.u.u.u.u.u.u.u.u.u.u.",
"u.u.u.u.u.u.u.u.u.u.u.u.u.u.u.u.u.u.u.u.u.u.u.u.u.u.u.u.u.u.u.u.",
"u.u.u.u.u.u.u.u.u.u.u.u.u.u.u.u.u.u.u.u.u.u.u.u.u.u.u.u.u.u.u.u."
};
